<?xml version="1.0" standalone="no"?>
<!DOCTYPE svg PUBLIC "-//W3C//DTD SVG 20010904//EN"
 "http://www.w3.org/TR/2001/REC-SVG-20010904/DTD/svg10.dtd">
<svg version="1.0" xmlns="http://www.w3.org/2000/svg"
 width="1024.000000pt" height="1024.000000pt" viewBox="0 0 1024.000000 1024.000000"
 preserveAspectRatio="xMidYMid meet">

<g transform="translate(0.000000,1024.000000) scale(0.100000,-0.100000)"
fill="#000000" stroke="none">
<path d="M5042 8879 c-192 -37 -351 -233 -352 -430 0 -163 74 -297 232 -416
20 -15 46 -44 57 -64 21 -37 21 -43 19 -804 l-3 -767 -57 84 c-76 112 -189
232 -312 329 -55 45 -255 192 -444 326 -188 135 -347 253 -352 262 -5 10 -8
64 -7 122 2 99 0 107 -31 171 -53 108 -144 184 -254 214 -197 52 -398 -61
-460 -258 -22 -73 -23 -135 -3 -213 30 -114 100 -195 215 -249 83 -39 174 -41
264 -6 78 30 109 23 209 -46 248 -174 574 -407 660 -472 284 -217 476 -517
549 -861 19 -89 21 -139 25 -685 l5 -590 -47 89 c-94 181 -218 349 -345 469
-138 129 -308 244 -876 589 -160 97 -299 186 -310 198 -14 16 -20 42 -25 103
-9 144 -76 249 -195 307 -188 93 -402 14 -492 -180 -22 -46 -26 -71 -27 -141
0 -75 4 -93 31 -150 62 -130 167 -201 308 -208 69 -3 91 0 151 23 47 18 79 25
100 21 41 -8 635 -370 950 -579 354 -235 610 -634 719 -1123 37 -166 47 -287
44 -542 l-3 -232 -46 62 c-126 170 -297 313 -481 403 -124 62 -205 89 -1158
390 -393 124 -748 237 -788 250 l-72 24 0 -522 c0 -311 4 -548 11 -587 14 -91
59 -181 124 -249 87 -92 83 -90 715 -291 124 -40 331 -106 460 -147 832 -265
925 -300 1106 -419 49 -32 130 -98 180 -146 l90 -87 50 50 c113 116 280 229
446 301 137 60 248 97 1083 363 391 124 741 238 779 252 130 49 236 152 288
282 23 56 23 60 26 623 l3 567 -43 -14 c-24 -8 -182 -57 -353 -110 -170 -53
-494 -155 -720 -226 -225 -72 -489 -155 -585 -185 -282 -89 -476 -195 -639
-348 -45 -43 -153 -174 -199 -242 -10 -15 -11 41 -8 296 4 295 5 323 30 440
83 389 255 720 500 965 152 152 313 262 930 638 259 158 263 159 371 118 48
-18 75 -22 135 -19 137 6 250 81 309 207 22 47 26 70 26 146 0 77 -4 98 -27
147 -37 79 -98 142 -177 181 -59 29 -74 32 -156 32 -82 0 -97 -3 -157 -33
-120 -59 -186 -160 -197 -306 -4 -50 -13 -92 -23 -107 -9 -13 -168 -118 -354
-233 -683 -422 -795 -509 -988 -768 -69 -92 -177 -278 -208 -360 -13 -32 -25
-58 -28 -58 -3 0 -4 278 -3 617 2 670 4 695 58 853 97 285 253 513 475 695 71
57 369 279 629 467 182 132 190 134 283 96 72 -29 173 -29 250 1 245 95 324
391 158 596 -17 22 -39 40 -48 40 -10 0 -17 7 -17 15 0 8 -8 14 -18 14 -9 -1
-14 2 -12 7 8 12 -60 44 -124 59 -160 38 -342 -53 -418 -208 -25 -52 -28 -67
-28 -163 0 -74 -5 -115 -15 -134 -8 -15 -135 -116 -292 -232 -154 -114 -275
-210 -271 -216 3 -6 1 -7 -5 -3 -19 11 -248 -168 -363 -283 -66 -67 -130 -144
-173 -208 -37 -57 -70 -103 -72 -103 -2 0 -3 357 -1 793 2 765 3 793 22 827
10 19 18 38 17 42 -1 5 1 7 6 6 4 -2 25 7 46 20 32 19 37 26 25 33 -10 8 -9 9
8 4 30 -8 115 80 153 159 156 329 -120 704 -468 635z m28 -19 c0 -5 -2 -10 -4
-10 -3 0 -8 5 -11 10 -3 6 -1 10 4 10 6 0 11 -4 11 -10z m77 4 c-3 -3 -12 -4
-19 -1 -8 3 -5 6 6 6 11 1 17 -2 13 -5z m53 1 c0 -1 -9 -10 -19 -19 -19 -17
-19 -17 -15 1 3 11 12 20 20 20 8 0 14 -1 14 -2z m-55 -25 c3 -5 1 -10 -4 -10
-6 0 -11 5 -11 10 0 6 2 10 4 10 3 0 8 -4 11 -10z m-105 -32 c0 -5 -7 -3 -15
6 -8 8 -15 18 -15 22 0 3 7 1 15 -6 8 -7 15 -17 15 -22z m47 25 c-4 -3 0 -15
10 -25 15 -17 5 -27 -11 -10 -4 4 -12 8 -17 8 -5 1 -11 2 -14 3 -9 2 19 30 29
31 5 0 6 -3 3 -7z m197 -28 c-7 -18 -17 -20 -11 -2 2 6 -3 18 -12 25 -14 11
-13 12 6 2 14 -6 20 -16 17 -25z m-334 0 c14 -19 14 -19 -2 -6 -10 7 -18 18
-18 24 0 6 1 8 3 6 1 -2 9 -13 17 -24z m434 -31 c3 -8 -1 -11 -10 -7 -7 3 -14
9 -14 13 0 15 -31 20 -53 9 l-22 -12 20 20 c19 19 22 19 47 5 15 -9 30 -22 32
-28z m-458 18 c-3 -3 2 -11 12 -18 18 -14 5 -19 -14 -6 -13 8 -15 44 -2 36 5
-4 7 -8 4 -12z m89 -2 c3 -5 1 -10 -4 -10 -6 0 -11 5 -11 10 0 6 2 10 4 10 3
0 8 -4 11 -10z m218 -5 c4 -8 2 -17 -3 -20 -6 -4 -10 3 -10 14 0 25 6 27 13 6z
m-118 -23 c-3 -3 -11 0 -18 7 -9 10 -8 11 6 5 10 -3 15 -9 12 -12z m-62 -5 c3
-9 -2 -13 -16 -11 -40 4 -42 6 -17 14 14 4 26 8 26 9 1 1 4 -5 7 -12z m189
-19 c-7 -7 -12 -8 -12 -2 0 14 12 26 19 19 2 -3 -1 -11 -7 -17z m176 -14 c1
-1 -4 -7 -13 -14 -13 -11 -14 -10 -9 5 5 11 4 16 -3 12 -5 -3 -10 0 -10 8 0
12 3 12 16 3 9 -7 17 -13 19 -14z m-111 3 c0 -7 -9 -13 -19 -13 -19 0 -23 8
-11 19 11 12 30 8 30 -6z m43 3 c0 -5 -2 -10 -4 -10 -3 0 -8 5 -11 10 -3 6 -1
10 4 10 6 0 11 -4 11 -10z m-538 -22 c-7 -7 -12 -8 -12 -2 0 14 12 26 19 19 2
-3 -1 -11 -7 -17z m213 12 c3 -5 1 -10 -4 -10 -6 0 -11 5 -11 10 0 6 2 10 4
10 3 0 8 -4 11 -10z m170 0 c3 -6 -1 -7 -9 -4 -18 7 -21 14 -7 14 6 0 13 -4
16 -10z m261 -29 c-9 -14 -36 -15 -36 -1 0 5 7 7 15 4 17 -7 20 6 5 24 -5 7
-3 6 6 -2 9 -8 13 -19 10 -25z m-292 4 c-4 -8 -8 -15 -10 -15 -2 0 -4 7 -4 15
0 8 4 15 10 15 5 0 7 -7 4 -15z m-164 -5 c0 -5 -2 -10 -4 -10 -3 0 -8 5 -11
10 -3 6 -1 10 4 10 6 0 11 -4 11 -10z m100 -6 c0 -14 -3 -14 -15 -4 -8 7 -15
14 -15 16 0 2 7 4 15 4 8 0 15 -7 15 -16z m-152 -19 c-3 -3 -9 2 -12 12 -6 14
-5 15 5 6 7 -7 10 -15 7 -18z m112 15 c0 -5 -2 -10 -4 -10 -3 0 -8 5 -11 10
-3 6 -1 10 4 10 6 0 11 -4 11 -10z m220 6 c0 -3 -4 -8 -10 -11 -5 -3 -10 -1
-10 4 0 6 5 11 10 11 6 0 10 -2 10 -4z m-490 -36 c0 -5 -7 -7 -15 -4 -8 4 -15
8 -15 10 0 2 7 4 15 4 8 0 15 -4 15 -10z m180 -16 c0 -8 -5 -12 -10 -9 -6 4
-8 11 -5 16 9 14 15 11 15 -7z m70 6 c0 -5 -5 -10 -11 -10 -5 0 -7 5 -4 10 3
6 8 10 11 10 2 0 4 -4 4 -10z m170 -9 c7 -14 7 -22 -2 -27 -7 -4 -8 -3 -4 5 4
6 0 14 -8 17 -9 3 -13 10 -10 15 8 13 12 11 24 -10z m60 15 c0 -2 -7 -9 -15
-16 -13 -11 -14 -10 -9 4 5 14 24 23 24 12z m147 -2 c-3 -3 -12 -4 -19 -1 -8
3 -5 6 6 6 11 1 17 -2 13 -5z m-577 -14 c0 -5 -5 -10 -11 -10 -5 0 -7 5 -4 10
3 6 8 10 11 10 2 0 4 -4 4 -10z m443 -41 c-6 -6 -9 -1 -7 13 3 33 6 36 11 14
3 -10 1 -22 -4 -27z m147 31 c0 -5 -2 -10 -4 -10 -3 0 -8 5 -11 10 -3 6 -1 10
4 10 6 0 11 -4 11 -10z m-495 -10 c3 -5 -1 -10 -10 -10 -9 0 -13 5 -10 10 3 6
8 10 10 10 2 0 7 -4 10 -10z m156 -7 c13 -16 12 -17 -3 -5 -9 8 -23 10 -29 6
-8 -4 -9 -3 -5 4 10 17 21 15 37 -5z m279 2 c0 -8 -2 -15 -4 -15 -2 0 -6 7
-10 15 -3 8 -1 15 4 15 6 0 10 -7 10 -15z m-570 -16 c0 -5 -4 -9 -10 -9 -5 0
-10 7 -10 16 0 8 5 12 10 9 6 -3 10 -10 10 -16z m605 3 c-3 -3 -11 0 -18 7 -9
10 -8 11 6 5 10 -3 15 -9 12 -12z m-385 -2 c0 -5 -2 -10 -4 -10 -3 0 -8 5 -11
10 -3 6 -1 10 4 10 6 0 11 -4 11 -10z m121 -30 c10 0 19 -4 19 -10 0 -13 -6
-13 -31 0 -10 6 -18 18 -18 28 1 16 2 16 6 0 2 -10 13 -18 24 -18z m289 20 c0
-5 -5 -10 -11 -10 -5 0 -7 5 -4 10 3 6 8 10 11 10 2 0 4 -4 4 -10z m17 -12
c-3 -8 -6 -5 -6 6 -1 11 2 17 5 13 3 -3 4 -12 1 -19z m73 12 c0 -5 -2 -10 -4
-10 -3 0 -8 5 -11 10 -3 6 -1 10 4 10 6 0 11 -4 11 -10z m-435 -10 c-3 -5 -12
-10 -18 -10 -7 0 -6 4 3 10 19 12 23 12 15 0z m105 0 c0 -5 -4 -10 -10 -10 -5
0 -10 5 -10 10 0 6 5 10 10 10 6 0 10 -4 10 -10z m170 -11 c0 -14 -17 -10 -23
5 -4 10 -1 13 9 9 7 -3 14 -9 14 -14z m-460 -9 c0 -5 -2 -10 -4 -10 -3 0 -8 5
-11 10 -3 6 -1 10 4 10 6 0 11 -4 11 -10z m165 -8 c-3 -3 -11 0 -18 7 -9 10
-8 11 6 5 10 -3 15 -9 12 -12z m263 -7 c-3 -3 -9 2 -12 12 -6 14 -5 15 5 6 7
-7 10 -15 7 -18z m72 5 c7 -14 7 -20 0 -20 -5 0 -10 6 -10 14 0 8 -6 17 -12
19 -10 4 -10 6 -1 6 7 1 17 -8 23 -19z m-300 6 c0 -3 -4 -8 -10 -11 -5 -3 -10
-1 -10 4 0 6 5 11 10 11 6 0 10 -2 10 -4z m434 -35 c-1 -1 -13 5 -26 14 -15
11 -17 15 -5 12 10 -4 17 -1 18 6 0 7 4 3 8 -8 5 -11 7 -22 5 -24z m-238 17
c4 -6 3 -8 -4 -4 -5 3 -13 0 -15 -6 -3 -8 -6 -6 -6 5 -1 19 14 23 25 5z m-156
-14 c0 -2 -12 -4 -26 -4 -14 0 -23 4 -20 9 6 8 46 4 46 -5z m340 6 c0 -5 -5
-10 -11 -10 -5 0 -7 5 -4 10 3 6 8 10 11 10 2 0 4 -4 4 -10z m-315 -10 c-3 -5
-1 -10 6 -10 7 0 10 -3 6 -6 -9 -9 -28 6 -22 17 4 5 8 9 11 9 3 0 2 -4 -1 -10z
m-80 -10 c3 -6 -1 -7 -9 -4 -18 7 -21 14 -7 14 6 0 13 -4 16 -10z m185 -22 c0
-19 -16 -5 -17 14 -2 18 0 20 7 8 5 -8 10 -18 10 -22z m120 23 c0 -6 -4 -12
-8 -15 -5 -3 -9 1 -9 9 0 8 4 15 9 15 4 0 8 -4 8 -9z m-495 -21 c3 -5 1 -10
-4 -10 -6 0 -11 5 -11 10 0 6 2 10 4 10 3 0 8 -4 11 -10z m413 -15 c-3 -3 -9
2 -12 12 -6 14 -5 15 5 6 7 -7 10 -15 7 -18z m-574 7 c3 -5 -1 -9 -9 -9 -8 0
-12 4 -9 9 3 4 7 8 9 8 2 0 6 -4 9 -8z m416 -12 c8 -5 11 -10 5 -10 -5 0 -17
5 -25 10 -8 5 -10 10 -5 10 6 0 17 -5 25 -10z m-340 -10 c0 -5 -2 -10 -4 -10
-3 0 -8 5 -11 10 -3 6 -1 10 4 10 6 0 11 -4 11 -10z m110 -10 c8 -5 11 -10 5
-10 -5 0 -17 5 -25 10 -8 5 -10 10 -5 10 6 0 17 -5 25 -10z m570 -35 c0 -2 -7
-5 -15 -9 -9 -3 -15 0 -15 9 0 9 6 12 15 9 8 -4 15 -7 15 -9z m-585 -5 c3 -5
1 -10 -4 -10 -6 0 -11 5 -11 10 0 6 2 10 4 10 3 0 8 -4 11 -10z m99 -50 c-6
-6 -10 -3 -10 10 0 13 4 16 10 10 7 -7 7 -13 0 -20z m339 -3 c3 -7 -3 -13 -14
-14 -15 -1 -16 1 -6 12 15 18 14 18 20 2z m132 -7 c-3 -5 -11 -10 -16 -10 -6
0 -7 5 -4 10 3 6 11 10 16 10 6 0 7 -4 4 -10z m50 0 c3 -6 -1 -7 -9 -4 -18 7
-21 14 -7 14 6 0 13 -4 16 -10z m-678 -42 c-3 -8 -6 -5 -6 6 -1 11 2 17 5 13
3 -3 4 -12 1 -19z m673 18 c0 -2 -8 -10 -17 -17 -16 -13 -17 -12 -4 4 13 16
21 21 21 13z m-260 -16 c0 -5 -5 -10 -11 -10 -5 0 -7 5 -4 10 3 6 8 10 11 10
2 0 4 -4 4 -10z m-239 -37 c13 -17 13 -17 -6 -3 -11 8 -22 16 -24 17 -2 2 0 3
6 3 6 0 17 -8 24 -17z m59 13 c0 -3 -4 -8 -10 -11 -5 -3 -10 -1 -10 4 0 6 5
11 10 11 6 0 10 -2 10 -4z m-216 -22 c3 -8 2 -12 -4 -9 -6 3 -10 10 -10 16 0
14 7 11 14 -7z m601 6 c3 -5 1 -10 -4 -10 -6 0 -11 5 -11 10 0 6 2 10 4 10 3
0 8 -4 11 -10z m18 -25 c-3 -9 -8 -14 -10 -11 -3 3 -2 9 2 15 9 16 15 13 8 -4z
m-372 -13 c-7 -2 -18 1 -23 6 -8 8 -4 9 13 5 13 -4 18 -8 10 -11z m39 4 c0 -3
-4 -8 -10 -11 -5 -3 -10 -1 -10 4 0 6 5 11 10 11 6 0 10 -2 10 -4z m-190 -16
c0 -5 -5 -10 -11 -10 -5 0 -7 5 -4 10 3 6 8 10 11 10 2 0 4 -4 4 -10z m510 -9
c0 -5 -7 -11 -14 -14 -10 -4 -13 -1 -9 9 6 15 23 19 23 5z m-353 -23 c-3 -8
-6 -5 -6 6 -1 11 2 17 5 13 3 -3 4 -12 1 -19z m-272 1 c11 -16 1 -19 -13 -3
-7 8 -8 14 -3 14 5 0 13 -5 16 -11z m355 -3 c0 -3 -4 -8 -10 -11 -5 -3 -10 -1
-10 4 0 6 5 11 10 11 6 0 10 -2 10 -4z m-290 -16 c0 -5 -2 -10 -4 -10 -3 0 -8
5 -11 10 -3 6 -1 10 4 10 6 0 11 -4 11 -10z m160 -20 c0 -5 -5 -10 -11 -10 -5
0 -7 5 -4 10 3 6 8 10 11 10 2 0 4 -4 4 -10z m50 -12 c-12 -5 -25 -6 -28 -3
-3 3 0 5 7 5 7 0 10 4 7 9 -4 5 4 7 16 3 l22 -5 -24 -9z m-160 -24 c0 -2 -7
-4 -15 -4 -8 0 -15 4 -15 10 0 5 7 7 15 4 8 -4 15 -8 15 -10z m150 -8 c0 -3
-4 -8 -10 -11 -5 -3 -10 -1 -10 4 0 6 5 11 10 11 6 0 10 -2 10 -4z m70 -86 c0
-5 -5 -10 -11 -10 -5 0 -7 5 -4 10 3 6 8 10 11 10 2 0 4 -4 4 -10z m40 -140
c0 -5 -8 -10 -17 -10 -15 0 -16 2 -3 10 19 12 20 12 20 0z m1560 -11 c0 -6 -4
-7 -10 -4 -5 3 -10 11 -10 16 0 6 5 7 10 4 6 -3 10 -11 10 -16z m-1564 -65
c-5 -14 -9 -15 -19 -5 -9 9 -9 14 3 21 18 11 24 6 16 -16z m1624 -4 c0 -5 -2
-10 -4 -10 -3 0 -8 5 -11 10 -3 6 -1 10 4 10 6 0 11 -4 11 -10z m-182 -75 c-3
-3 -9 2 -12 12 -6 14 -5 15 5 6 7 -7 10 -15 7 -18z m117 7 c-3 -3 -11 0 -18 7
-9 10 -8 11 6 5 10 -3 15 -9 12 -12z m65 -7 c-7 -9 -15 -13 -19 -10 -3 3 1 10
9 15 21 14 24 12 10 -5z m71 -28 c-10 -9 -11 -8 -5 6 3 10 9 15 12 12 3 -3 0
-11 -7 -18z m-381 3 c0 -5 -5 -10 -11 -10 -5 0 -7 5 -4 10 3 6 8 10 11 10 2 0
4 -4 4 -10z m-1376 -28 c3 -5 -1 -9 -9 -9 -8 0 -12 4 -9 9 3 4 7 8 9 8 2 0 6
-4 9 -8z m-114 -66 c0 -3 -4 -8 -10 -11 -5 -3 -10 -1 -10 4 0 6 5 11 10 11 6
0 10 -2 10 -4z m180 -41 c0 -8 -4 -15 -10 -15 -5 0 -7 7 -4 15 4 8 8 15 10 15
2 0 4 -7 4 -15z m1740 5 c0 -5 -2 -10 -4 -10 -3 0 -8 5 -11 10 -3 6 -1 10 4
10 6 0 11 -4 11 -10z m-120 -10 c0 -5 -2 -10 -4 -10 -3 0 -8 5 -11 10 -3 6 -1
10 4 10 6 0 11 -4 11 -10z m320 -10 c0 -5 -5 -10 -11 -10 -5 0 -7 5 -4 10 3 6
8 10 11 10 2 0 4 -4 4 -10z m-713 -82 c-3 -7 -5 -2 -5 12 0 14 2 19 5 13 2 -7
2 -19 0 -25z m705 -20 c-6 -6 -7 0 -4 19 5 21 7 23 10 9 2 -10 0 -22 -6 -28z
m-1942 6 c0 -8 -4 -12 -10 -9 -5 3 -10 10 -10 16 0 5 5 9 10 9 6 0 10 -7 10
-16z m1310 -44 c0 -5 -2 -10 -4 -10 -3 0 -8 5 -11 10 -3 6 -1 10 4 10 6 0 11
-4 11 -10z m620 0 c0 -5 -2 -10 -4 -10 -3 0 -8 5 -11 10 -3 6 -1 10 4 10 6 0
11 -4 11 -10z m-2076 -1106 c3 -8 2 -12 -4 -9 -6 3 -10 10 -10 16 0 14 7 11
14 -7z m44 -89 c-3 -3 -9 2 -12 12 -6 14 -5 15 5 6 7 -7 10 -15 7 -18z m129
-447 c-3 -8 -6 -5 -6 6 -1 11 2 17 5 13 3 -3 4 -12 1 -19z"/>
</g>
</svg>
